<svg width="34" height="163" viewBox="0 0 34 163" fill="none" xmlns="http://www.w3.org/2000/svg">
<g clip-path="url(#clip0_386_5374)">
<path d="M32.5703 162.295L0.491544 161.515C0.415886 155.259 0.382786 151.022 0.283485 144.771C-0.165733 116.12 -0.0238776 59.1216 0.28348 30.5231C0.378051 21.4962 0.037592 10.2894 0.491537 1.52735C0.633394 -1.16795 31.6908 0.463394 32.698 0.794403C32.6838 3.73087 32.9864 6.90848 33.0384 9.73145C33.4498 31.0148 32.8777 82.0458 32.7878 103.268C32.7216 118.744 32.7453 134.174 32.5561 149.589C32.4947 154.493 32.6176 157.391 32.5656 162.29L32.5703 162.295Z" fill="#0EE02D"/>
<path d="M25.6053 142.416C25.8323 142.548 25.9742 142.709 26.0262 142.903C26.395 144.076 26.5794 145.362 26.5794 146.766C26.5794 148.17 26.3099 149.296 25.7661 150.208C25.2223 151.121 24.182 151.778 22.6405 152.18C21.151 152.568 19.0941 152.757 16.465 152.757C12.6443 152.757 10.0199 152.317 8.5824 151.443C7.18274 150.587 6.47818 148.946 6.47818 146.53C6.47818 145.48 6.67205 144.288 7.05507 142.955C7.10708 142.747 7.25367 142.572 7.4901 142.444C7.72653 142.312 7.99606 142.246 8.28923 142.246L11.1264 142.326C11.4763 142.326 11.7553 142.416 11.9681 142.6C12.1761 142.785 12.2849 143.007 12.2849 143.272C12.1809 144.061 12.1288 144.813 12.1288 145.532C12.1288 146.511 12.3842 147.135 12.8902 147.395C13.3961 147.674 14.46 147.816 16.0678 147.816C17.6755 147.816 18.8198 147.754 19.3778 147.631C20.0445 147.475 20.4701 147.239 20.6545 146.922C20.8389 146.605 20.9288 146.151 20.9288 145.556L20.7964 143.191C20.7774 142.926 20.8862 142.709 21.1132 142.534C21.3402 142.359 21.6286 142.264 21.9785 142.246L24.844 142.246C25.123 142.227 25.3784 142.283 25.6053 142.416Z" fill="white"/>
<path d="M7.23948 136.793C7.50428 136.609 7.82583 136.519 8.21357 136.519L19.5386 136.519C20.1154 136.519 20.5174 136.406 20.7349 136.179C20.9524 135.952 21.0612 135.616 21.0612 135.181C21.0612 134.746 20.9524 134.42 20.7349 134.207C20.5174 133.999 20.1154 133.89 19.5386 133.89L8.21357 133.89C7.83056 133.89 7.50428 133.796 7.23948 133.602C6.97468 133.408 6.84701 133.171 6.84701 132.892L6.84701 130.003C6.84701 129.724 6.97941 129.488 7.23948 129.294C7.50428 129.1 7.82583 129.005 8.21357 129.005L19.1697 129.005C21.0422 129.005 22.5223 129.242 23.6099 129.715C24.6975 130.188 25.4635 130.873 25.908 131.776C26.3525 132.68 26.5794 133.814 26.5794 135.181C26.5794 136.548 26.3666 137.706 25.9363 138.609C25.506 139.512 24.7589 140.198 23.6903 140.671C22.6216 141.144 21.151 141.38 19.2738 141.38L8.21357 141.38C7.83056 141.38 7.50429 141.286 7.23948 141.092C6.97468 140.898 6.84701 140.661 6.84701 140.382L6.84701 137.493C6.84701 137.214 6.97941 136.983 7.23948 136.798L7.23948 136.793Z" fill="white"/>
<path d="M11.9302 117.392C12.1667 117.6 12.2849 117.865 12.2849 118.182C12.091 119.477 11.9964 120.555 11.9964 121.411C11.9964 122.267 12.0248 122.83 12.0768 122.986C12.1478 123.128 12.2943 123.194 12.5213 123.194C12.7294 123.194 12.8902 123.109 12.9942 122.929C13.1171 122.787 13.311 122.262 13.5711 121.355C13.817 120.551 14.0534 119.87 14.2804 119.317C14.5073 118.763 14.862 118.238 15.3443 117.742C15.8266 117.241 16.4461 116.905 17.1979 116.73C17.9356 116.588 18.8529 116.522 19.9547 116.522C22.3899 116.522 24.1064 116.99 25.1041 117.926C26.1018 118.863 26.6031 120.253 26.6031 122.092C26.6031 123.932 26.3477 125.681 25.8418 127.19C25.7708 127.417 25.6006 127.606 25.3311 127.752C25.0616 127.904 24.7589 127.975 24.4232 127.975L21.9265 127.871C21.5766 127.837 21.274 127.724 21.0186 127.53C20.7633 127.336 20.6356 127.109 20.6356 126.849C20.9335 125.166 21.0801 123.724 21.0801 122.513C21.0801 121.794 20.8626 121.435 20.4228 121.435C20.2289 121.435 20.0823 121.515 19.9783 121.671C19.9074 121.827 19.7939 122.286 19.6379 123.038C19.217 125 18.5503 126.334 17.6424 127.034C16.7676 127.752 15.3017 128.112 13.2543 128.112C11.5189 128.112 10.157 127.904 9.16875 127.492C8.18047 127.081 7.48537 126.471 7.07871 125.667C6.67678 124.863 6.47345 123.818 6.47345 122.541C6.47345 121.09 6.65787 119.529 7.0267 117.865L7.0267 117.837C7.07871 117.591 7.23948 117.392 7.51374 117.231C7.78327 117.075 8.0859 116.995 8.42163 116.995L10.942 117.047C11.3628 117.066 11.6891 117.179 11.9255 117.387L11.9302 117.392Z" fill="white"/>
<path d="M7.25367 115.841C6.98414 115.647 6.84701 115.401 6.84701 115.103L6.84701 106.592C6.84701 106.327 6.98414 106.1 7.25367 105.911C7.5232 105.717 7.8542 105.623 8.23722 105.623L10.942 105.623C11.3297 105.623 11.6513 105.717 11.9161 105.911C12.1809 106.105 12.3085 106.332 12.3085 106.592L12.3085 107.353C12.3085 107.632 12.4457 107.869 12.7152 108.063C12.9847 108.256 13.3157 108.351 13.6987 108.351L24.8393 108.351C25.2271 108.351 25.5486 108.446 25.8134 108.639C26.0782 108.833 26.2059 109.06 26.2059 109.32L26.2059 112.238C26.2059 112.517 26.0735 112.749 25.8134 112.933C25.5533 113.117 25.2271 113.207 24.8393 113.207L13.6987 113.207C13.3157 113.207 12.9847 113.302 12.7152 113.496C12.4457 113.69 12.3085 113.926 12.3085 114.205L12.3085 115.099C12.3085 115.378 12.1761 115.619 11.9161 115.822C11.6513 116.025 11.3297 116.125 10.942 116.125L8.23722 116.125C7.8542 116.125 7.5232 116.03 7.25367 115.836L7.25367 115.841Z" fill="white"/>
<path d="M24.0827 93.2053C25.7472 94.2314 26.5794 95.9431 26.5794 98.3405C26.5794 100.738 25.7472 102.459 24.0827 103.504C22.4183 104.544 19.8885 105.069 16.4886 105.069C13.0888 105.069 10.5968 104.559 8.9465 103.533C7.30095 102.506 6.47818 100.785 6.47818 98.3689C6.47818 95.9526 7.30095 94.2314 8.9465 93.2053C10.5921 92.1792 13.1171 91.6685 16.5123 91.6685C19.9074 91.6685 22.4135 92.1792 24.078 93.2053L24.0827 93.2053ZM20.0587 99.7875C20.7774 99.5794 21.1368 99.0971 21.1368 98.3405C21.1368 97.584 20.7869 97.1489 20.0871 96.922C19.3872 96.695 18.1862 96.5815 16.4886 96.5815C14.791 96.5815 13.642 96.695 12.9422 96.922C12.2423 97.13 11.8924 97.6029 11.8924 98.3405C11.8924 99.0782 12.2518 99.5747 12.9705 99.7875C13.7413 100.033 14.9234 100.156 16.517 100.156C18.1105 100.156 19.2927 100.033 20.0634 99.7875L20.0587 99.7875Z" fill="white"/>
<path d="M7.19692 90.4343C6.96049 90.2594 6.84228 90.0513 6.84228 89.8054L6.84228 84.1548C6.84228 83.9467 6.93212 83.7623 7.10708 83.6015C7.28204 83.4455 7.50901 83.3367 7.788 83.2847L10.89 82.8638C11.221 82.7929 11.3912 82.6369 11.3912 82.391C11.3912 82.287 11.3439 82.1829 11.2446 82.0884C11.15 81.9938 11.0224 81.937 10.8616 81.9181L7.84001 81.5777C7.56103 81.5446 7.3246 81.4405 7.13072 81.275C6.93685 81.1095 6.84228 80.9204 6.84228 80.7123L6.84228 74.882C6.84228 74.6361 6.96049 74.428 7.19692 74.2531C7.43335 74.0781 7.71707 73.9883 8.0528 73.9883L25.0001 73.9883C25.3311 73.9883 25.6195 74.0781 25.856 74.2531C26.0924 74.428 26.2106 74.6361 26.2106 74.882L26.2106 77.9839C26.2106 78.2298 26.0924 78.4379 25.856 78.6128C25.6195 78.7878 25.3358 78.8776 25.0001 78.8776L16.2238 78.8776L16.2238 79.0857L25.0001 80.1875C25.2791 80.2253 25.5155 80.3246 25.7094 80.4901C25.9032 80.6556 25.9978 80.8447 25.9978 81.0528L25.9978 83.6535C25.9978 83.8616 25.9032 84.0507 25.7094 84.2162C25.5155 84.3817 25.2791 84.4858 25.0001 84.5189L16.2238 85.597L16.2238 85.805L25.0001 85.805C25.3311 85.805 25.6195 85.8949 25.856 86.0698C26.0924 86.2448 26.2106 86.4529 26.2106 86.6987L26.2106 89.8007C26.2106 90.0466 26.0924 90.2546 25.856 90.4296C25.6195 90.6046 25.3358 90.6944 25.0001 90.6944L8.0528 90.6944C7.7218 90.6944 7.43335 90.6093 7.19692 90.4296L7.19692 90.4343Z" fill="white"/>
<path d="M7.18747 72.4893C6.96049 72.3333 6.84701 72.1394 6.84701 71.9125L6.84701 68.6828C6.84701 68.4558 6.96049 68.2572 7.18747 68.0917C7.41444 67.9262 7.67924 67.8411 7.97714 67.8411L25.0568 67.8411C25.3736 67.8411 25.6432 67.9262 25.8701 68.0917C26.0971 68.2572 26.2106 68.4558 26.2106 68.6828L26.2106 71.9125C26.2106 72.1394 26.0971 72.3333 25.8701 72.4893C25.6432 72.6454 25.3689 72.7258 25.0568 72.7258L7.97241 72.7258C7.67451 72.7258 7.40971 72.6454 7.18274 72.4893L7.18747 72.4893Z" fill="white"/>
<path d="M11.9302 56.1473C12.1667 56.3554 12.2849 56.6202 12.2849 56.937C12.091 58.2326 11.9964 59.3107 11.9964 60.1666C11.9964 61.0225 12.0248 61.5852 12.0768 61.7412C12.1478 61.8831 12.2943 61.9493 12.5213 61.9493C12.7294 61.9493 12.8901 61.8642 12.9942 61.6845C13.1171 61.5426 13.311 61.0178 13.5711 60.1099C13.817 59.306 14.0534 58.6251 14.2804 58.0719C14.5073 57.5186 14.862 56.9937 15.3443 56.4972C15.8266 55.996 16.4461 55.6603 17.1979 55.4853C17.9356 55.3435 18.8529 55.2773 19.9547 55.2773C22.3899 55.2773 24.1064 55.7454 25.1041 56.6816C26.1018 57.6179 26.6031 59.0081 26.6031 60.8475C26.6031 62.687 26.3477 64.4365 25.8418 65.945C25.7708 66.1719 25.6006 66.3611 25.3311 66.5077C25.0616 66.6542 24.7589 66.7299 24.4232 66.7299L21.9265 66.6259C21.5766 66.5928 21.2739 66.4793 21.0186 66.2854C20.7633 66.0916 20.6356 65.8646 20.6356 65.5998C20.9335 63.9164 21.0801 62.4742 21.0801 61.2637C21.0801 60.5449 20.8626 60.1855 20.4228 60.1855C20.2289 60.1855 20.0823 60.2659 19.9783 60.422C19.9074 60.578 19.7939 61.0367 19.6379 61.7885C19.217 63.7509 18.5503 65.0796 17.6424 65.7842C16.7676 66.5029 15.3017 66.8623 13.2543 66.8623C11.5189 66.8623 10.157 66.6542 9.16875 66.2429C8.18047 65.8315 7.48537 65.2215 7.07871 64.4176C6.67678 63.6138 6.47345 62.5687 6.47345 61.292C6.47345 59.8403 6.65786 58.2799 7.02669 56.6154L7.02669 56.5871C7.07871 56.3412 7.23948 56.1426 7.51374 55.9818C7.78327 55.8258 8.0859 55.7454 8.42163 55.7454L10.942 55.7974C11.3628 55.8163 11.6891 55.9298 11.9255 56.1379L11.9302 56.1473Z" fill="white"/>
<path d="M7.07871 54.2653C6.92266 54.1518 6.84228 54.0052 6.84228 53.8303L6.84228 44.4771C6.84228 44.3211 6.92266 44.1792 7.07871 44.0563C7.23475 43.9333 7.42862 43.8719 7.6556 43.8719L11.3581 43.8719C11.5851 43.8719 11.7789 43.9333 11.935 44.0563C12.091 44.1792 12.1714 44.3211 12.1714 44.4771L12.1714 48.9457C12.1714 49.1206 12.2565 49.2672 12.422 49.3807C12.5875 49.4942 12.7767 49.5509 12.9847 49.5509C13.2306 49.5509 13.4292 49.4942 13.59 49.3807C13.746 49.2672 13.8264 49.1206 13.8264 48.9457L13.8264 46.2645C13.8264 46.1085 13.9068 45.9666 14.0628 45.8437C14.2189 45.7208 14.4128 45.6593 14.6397 45.6593L18.2902 45.6593C18.5172 45.6593 18.711 45.7207 18.8671 45.8437C19.0231 45.9666 19.1035 46.1085 19.1035 46.2645L19.1035 48.9457C19.1035 49.1206 19.1886 49.2672 19.3541 49.3807C19.5196 49.4942 19.7088 49.5509 19.9168 49.5509L20.0209 49.5509C20.2478 49.5509 20.4417 49.4942 20.5978 49.3807C20.7538 49.2672 20.8342 49.1206 20.8342 48.9456L20.8342 44.4771C20.8342 44.3211 20.9193 44.1792 21.0848 44.0563C21.2503 43.9333 21.4394 43.8719 21.6475 43.8719L25.35 43.8719C25.577 43.8719 25.7756 43.9333 25.9411 44.0563C26.1066 44.1792 26.1917 44.3211 26.1917 44.4771L26.1917 53.8303C26.1917 54.0052 26.1113 54.1518 25.9553 54.2653C25.7992 54.3788 25.5959 54.4355 25.35 54.4355L7.66032 54.4355C7.43335 54.4355 7.23948 54.3788 7.08344 54.2653L7.07871 54.2653Z" fill="white"/>
<path d="M7.19692 38.1219C6.96049 37.9469 6.84228 37.7389 6.84228 37.493L6.84228 31.8423C6.84228 31.6342 6.93212 31.4498 7.10708 31.2891C7.28204 31.133 7.50901 31.0243 7.788 30.9722L10.89 30.5514C11.221 30.4805 11.3912 30.3244 11.3912 30.0785C11.3912 29.9745 11.3439 29.8705 11.2446 29.7759C11.15 29.6813 11.0224 29.6246 10.8616 29.6057L7.84001 29.2652C7.56102 29.2321 7.32459 29.1281 7.13072 28.9626C6.93685 28.7971 6.84228 28.6079 6.84228 28.3999L6.84228 22.5695C6.84228 22.3237 6.96049 22.1156 7.19692 21.9406C7.43335 21.7657 7.71707 21.6758 8.0528 21.6758L25.0001 21.6758C25.3311 21.6758 25.6195 21.7657 25.856 21.9406C26.0924 22.1156 26.2106 22.3237 26.2106 22.5695L26.2106 25.6715C26.2106 25.9174 26.0924 26.1254 25.856 26.3004C25.6195 26.4754 25.3358 26.5652 25.0001 26.5652L16.2238 26.5652L16.2238 26.7733L25.0001 27.875C25.2791 27.9129 25.5155 28.0121 25.7094 28.1776C25.9032 28.3431 25.9978 28.5323 25.9978 28.7403L25.9978 31.3411C25.9978 31.5491 25.9032 31.7383 25.7094 31.9038C25.5155 32.0693 25.2791 32.1733 25.0001 32.2064L16.2238 33.2845L16.2238 33.4926L25.0001 33.4926C25.3311 33.4926 25.6195 33.5824 25.856 33.7574C26.0924 33.9324 26.2106 34.1404 26.2106 34.3863L26.2106 37.4882C26.2106 37.7341 26.0924 37.9422 25.856 38.1172C25.6195 38.2921 25.3358 38.382 25.0001 38.382L8.0528 38.382C7.7218 38.382 7.43335 38.2968 7.19692 38.1172L7.19692 38.1219Z" fill="white"/>
<path d="M7.07871 20.2431C6.92266 20.1296 6.84228 19.983 6.84228 19.8081L6.84228 10.4549C6.84228 10.2989 6.92266 10.157 7.07871 10.0341C7.23475 9.91112 7.42862 9.84964 7.65559 9.84964L11.3581 9.84964C11.5851 9.84964 11.7789 9.91112 11.935 10.0341C12.091 10.157 12.1714 10.2989 12.1714 10.4549L12.1714 14.9234C12.1714 15.0984 12.2565 15.245 12.422 15.3585C12.5875 15.4719 12.7767 15.5287 12.9847 15.5287C13.2306 15.5287 13.4292 15.4719 13.59 15.3585C13.746 15.245 13.8264 15.0984 13.8264 14.9234L13.8264 12.2423C13.8264 12.0863 13.9068 11.9444 14.0628 11.8215C14.2189 11.6985 14.4128 11.6371 14.6397 11.6371L18.2902 11.6371C18.5172 11.6371 18.711 11.6985 18.8671 11.8215C19.0231 11.9444 19.1035 12.0863 19.1035 12.2423L19.1035 14.9234C19.1035 15.0984 19.1886 15.245 19.3541 15.3585C19.5196 15.4719 19.7088 15.5287 19.9168 15.5287L20.0209 15.5287C20.2478 15.5287 20.4417 15.4719 20.5978 15.3585C20.7538 15.245 20.8342 15.0984 20.8342 14.9234L20.8342 10.4549C20.8342 10.2989 20.9193 10.157 21.0848 10.0341C21.2503 9.91112 21.4394 9.84964 21.6475 9.84964L25.35 9.84964C25.577 9.84964 25.7756 9.91112 25.9411 10.0341C26.1066 10.157 26.1917 10.2989 26.1917 10.4549L26.1917 19.8081C26.1917 19.983 26.1113 20.1296 25.9553 20.2431C25.7992 20.3566 25.5959 20.4133 25.35 20.4133L7.66032 20.4133C7.43335 20.4133 7.23948 20.3566 7.08343 20.2431L7.07871 20.2431Z" fill="white"/>
</g>
<defs>
<clipPath id="clip0_386_5374">
<rect width="162.295" height="33.19" fill="white" transform="translate(7.15256e-06 162.295) rotate(-90)"/>
</clipPath>
</defs>
</svg>
