<?xml version="1.0" encoding="UTF-8"?>
<svg id="Layer_1" xmlns="http://www.w3.org/2000/svg" version="1.1" viewBox="0 0 28 144">
  <!-- Generator: Adobe Illustrator 29.8.2, SVG Export Plug-In . SVG Version: 2.1.1 Build 3)  -->
  <defs>
    <style>
      .st0 {
        fill: #17e02c;
      }

      .st1 {
        fill: #fff;
      }
    </style>
  </defs>
  <rect class="st0" x="0" y="0" width="28" height="144"/>
  <g>
    <path class="st1" d="M21.8,127.5c.2.1.3.3.4.4.3,1,.5,2.1.5,3.4s-.2,2.2-.7,3-1.4,1.4-2.7,1.7c-1.3.3-3.1.5-5.4.5-3.3,0-5.6-.4-6.8-1.1-1.2-.7-1.8-2.2-1.8-4.3s.2-1.9.5-3.1c0-.2.2-.3.4-.4.2-.1.4-.2.7-.2h2.5c.3,0,.5.1.7.3.2.2.3.4.3.6,0,.7-.1,1.3-.1,2s.2,1.4.7,1.6c.4.2,1.4.4,2.8.4s2.4,0,2.9-.2c.6-.1.9-.3,1.1-.6s.2-.7.2-1.2v-2.1c-.1-.2,0-.4.2-.6s.4-.2.8-.3h2.5c.2,0,.5,0,.7.1Z"/>
    <path class="st1" d="M5.9,122.2c.2-.2.5-.2.8-.2h9.8c.5,0,.8,0,1-.3.2-.2.3-.5.3-.9s0-.7-.3-.8c-.2-.2-.5-.3-1-.3H6.7c-.3,0-.6,0-.8-.3-.2-.2-.3-.4-.3-.6v-2.5c0-.2.1-.4.3-.6s.5-.3.8-.3h9.5c1.6,0,2.9.2,3.9.6.9.4,1.6,1,2,1.8.4.8.6,1.8.6,3s-.2,2.2-.6,3c-.4.8-1,1.4-2,1.8-.9.4-2.2.6-3.8.6H6.7c-.3,0-.6,0-.8-.3-.2-.2-.3-.4-.3-.6v-2.5c0-.2.1-.4.3-.6Z"/>
    <path class="st1" d="M10,104.9c.2.2.3.4.3.7-.2,1.1-.3,2.1-.3,2.8s0,1.2,0,1.4c0,.1.2.2.4.2s.3,0,.4-.2c.1-.1.3-.6.5-1.4.2-.7.4-1.3.6-1.8.2-.5.5-.9.9-1.4.4-.4,1-.7,1.6-.9.6-.1,1.4-.2,2.4-.2,2.1,0,3.6.4,4.5,1.2.9.8,1.3,2,1.3,3.6s-.2,3.1-.7,4.4c0,.2-.2.4-.4.5s-.5.2-.8.2h-2.2c-.3-.1-.6-.2-.8-.4s-.3-.4-.3-.6c.3-1.5.4-2.7.4-3.8s-.2-.9-.6-.9-.3,0-.4.2c0,.1-.2.5-.3,1.2-.4,1.7-.9,2.9-1.7,3.5-.8.6-2,.9-3.8.9s-2.7-.2-3.5-.5-1.5-.9-1.8-1.6c-.3-.7-.5-1.6-.5-2.7s.2-2.6.5-4.1h0c0-.2.2-.4.4-.5.2-.1.5-.2.8-.2h2.2c.4,0,.7.2.9.3Z"/>
    <path class="st1" d="M5.9,103.1c-.2-.2-.4-.4-.4-.6v-7.4c0-.2.1-.4.4-.6s.5-.3.9-.3h2.3c.3,0,.6,0,.8.3s.3.4.3.6v.7c0,.2.1.4.4.6.2.2.5.3.9.3h9.7c.3,0,.6,0,.8.3.2.2.3.4.3.6v2.5c0,.2-.1.4-.3.6-.2.2-.5.2-.8.2h-9.7c-.3,0-.6,0-.9.3-.2.2-.4.4-.4.6v.8c0,.2-.1.5-.3.6-.2.2-.5.3-.8.3h-2.3c-.3,0-.6,0-.9-.3Z"/>
    <path class="st1" d="M20.5,83c1.4.9,2.2,2.4,2.2,4.5s-.7,3.6-2.2,4.5c-1.4.9-3.6,1.4-6.6,1.4s-5.1-.4-6.5-1.3c-1.4-.9-2.1-2.4-2.1-4.5s.7-3.6,2.1-4.5c1.4-.9,3.6-1.3,6.6-1.3s5.1.4,6.6,1.3ZM17,88.7c.6-.2.9-.6.9-1.3s-.3-1-.9-1.2c-.6-.2-1.7-.3-3.1-.3s-2.5,0-3.1.3c-.6.2-.9.6-.9,1.2s.3,1.1.9,1.3c.7.2,1.7.3,3.1.3s2.4-.1,3.1-.3Z"/>
    <path class="st1" d="M5.9,80.1c-.2-.2-.3-.3-.3-.5v-4.9c0-.2,0-.3.2-.5.2-.1.4-.2.6-.3l2.7-.4c.3,0,.4-.2.4-.4s0-.2-.1-.3-.2-.1-.3-.1l-2.6-.3c-.2,0-.4-.1-.6-.3s-.3-.3-.3-.5v-5.1c0-.2.1-.4.3-.5.2-.2.5-.2.7-.2h14.7c.3,0,.5,0,.7.2.2.2.3.3.3.5v2.7c0,.2-.1.4-.3.5-.2.2-.5.2-.7.2h-7.6v.2l7.6,1c.2,0,.4.1.6.3.2.1.3.3.3.5v2.3c0,.2,0,.3-.3.5-.2.1-.4.2-.6.3l-7.6.9v.2h7.6c.3,0,.5,0,.7.2.2.2.3.3.3.5v2.7c0,.2-.1.4-.3.5-.2.2-.5.2-.7.2H6.6c-.3,0-.5,0-.7-.2Z"/>
    <path class="st1" d="M5.8,64.1c-.2-.1-.3-.3-.3-.5v-2.8c0-.2.1-.4.3-.5.2-.1.4-.2.7-.2h14.8c.3,0,.5,0,.7.2.2.1.3.3.3.5v2.8c0,.2,0,.4-.3.5-.2.1-.4.2-.7.2H6.5c-.3,0-.5,0-.7-.2Z"/>
    <path class="st1" d="M10,49.4c.2.2.3.4.3.7-.2,1.1-.3,2.1-.3,2.8s0,1.2,0,1.4c0,.1.2.2.4.2s.3,0,.4-.2c.1-.1.3-.6.5-1.4.2-.7.4-1.3.6-1.8.2-.5.5-.9.9-1.4.4-.4,1-.7,1.6-.9.6-.1,1.4-.2,2.4-.2,2.1,0,3.6.4,4.5,1.2s1.3,2,1.3,3.6-.2,3.1-.7,4.4c0,.2-.2.4-.4.5-.2.1-.5.2-.8.2h-2.2c-.3-.1-.6-.2-.8-.4s-.3-.4-.3-.6c.3-1.5.4-2.7.4-3.8s-.2-.9-.6-.9-.3,0-.4.2c0,.1-.2.5-.3,1.2-.4,1.7-.9,2.9-1.7,3.5-.8.6-2,.9-3.8.9s-2.7-.2-3.5-.5c-.9-.4-1.5-.9-1.8-1.6-.3-.7-.5-1.6-.5-2.7s.2-2.6.5-4.1h0c0-.2.2-.4.4-.5s.5-.2.8-.2h2.2c.4,0,.7.2.9.3Z"/>
    <path class="st1" d="M5.8,47.3c-.1,0-.2-.2-.2-.4v-8.1c0-.1,0-.3.2-.4.1-.1.3-.2.5-.2h3.2c.2,0,.4,0,.5.2.1.1.2.2.2.4v3.9c0,.2,0,.3.2.4.1,0,.3.1.5.1s.4,0,.5-.1c.1-.1.2-.2.2-.4v-2.3c0-.1,0-.3.2-.4.1-.1.3-.2.5-.2h3.2c.2,0,.4,0,.5.2.1.1.2.2.2.4v2.3c0,.2,0,.3.2.4.1,0,.3.1.5.1h0c.2,0,.4,0,.5-.1.1-.1.2-.2.2-.4v-3.9c0-.1,0-.3.2-.4.1-.1.3-.2.5-.2h3.2c.2,0,.4,0,.5.2.1.1.2.2.2.4v8.1c0,.2,0,.3-.2.4-.1.1-.3.1-.5.1H6.3c-.2,0-.4,0-.5-.1Z"/>
    <path class="st1" d="M5.9,32.4c-.2-.2-.3-.3-.3-.5v-4.9c0-.2,0-.3.2-.5.2-.1.4-.2.6-.3l2.7-.4c.3,0,.4-.2.4-.4s0-.2-.1-.3-.2-.1-.3-.1l-2.6-.3c-.2,0-.4-.1-.6-.3s-.3-.3-.3-.5v-5.1c0-.2.1-.4.3-.5.2-.2.5-.2.7-.2h14.7c.3,0,.5,0,.7.2.2.2.3.3.3.5v2.7c0,.2-.1.4-.3.5-.2.2-.5.2-.7.2h-7.6v.2l7.6,1c.2,0,.4.1.6.3.2.1.3.3.3.5v2.3c0,.2,0,.3-.3.5-.2.1-.4.2-.6.3l-7.6.9v.2h7.6c.3,0,.5,0,.7.2.2.2.3.3.3.5v2.7c0,.2-.1.4-.3.5-.2.2-.5.2-.7.2H6.6c-.3,0-.5,0-.7-.2Z"/>
    <path class="st1" d="M5.8,16.4c-.1,0-.2-.2-.2-.4V7.9c0-.1,0-.3.2-.4.1-.1.3-.2.5-.2h3.2c.2,0,.4,0,.5.2.1.1.2.2.2.4v3.9c0,.2,0,.3.2.4.1,0,.3.1.5.1s.4,0,.5-.1c.1-.1.2-.2.2-.4v-2.3c0-.1,0-.3.2-.4.1-.1.3-.2.5-.2h3.2c.2,0,.4,0,.5.2.1.1.2.2.2.4v2.3c0,.2,0,.3.2.4.1,0,.3.1.5.1h0c.2,0,.4,0,.5-.1.1-.1.2-.2.2-.4v-3.9c0-.1,0-.3.2-.4.1-.1.3-.2.5-.2h3.2c.2,0,.4,0,.5.2.1.1.2.2.2.4v8.1c0,.2,0,.3-.2.4-.1.1-.3.1-.5.1H6.3c-.2,0-.4,0-.5-.1Z"/>
  </g>
</svg>