<svg width="371" height="52" viewBox="0 0 371 52" fill="none" xmlns="http://www.w3.org/2000/svg">
<path d="M370.094 1.5555C370.617 1.95578 371.008 3.09987 371 3.69432C370.984 5.25661 369.606 48.3316 368.754 49.7894C367.903 51.2471 366.872 51.6086 364.891 51.9133C339.786 52.1642 65.966 51.8087 40.9188 51.6295C29.5064 51.5488 16.0513 52.3793 4.95527 51.6534C3.49845 51.5578 1.28392 51.3009 0.522317 50.2643C-0.469727 48.9111 0.139559 4.45306 0.79962 2.76531C1.19409 1.75564 2.01429 1.0656 3.42815 0.892347C7.07605 0.450246 12.4737 0.722077 16.3091 0.587655C43.3833 -0.350318 319.086 -0.0247158 346.16 0.587655C352.932 0.74 361.052 0.303876 367.664 0.865464C368.313 0.919233 369.652 1.22392 370.086 1.5555H370.094Z" fill="black"/>
<path d="M127.865 27.8563H133.433V29.6323H125.657V19.0723H127.865V27.8563ZM137.475 27.8563H143.411V29.6323H135.267V19.0723H143.187V20.8483H137.475V23.4723H141.971V25.1683H137.475V27.8563ZM153.744 19.0723V20.8483H150.208V29.6323H148V20.8483H144.448V19.0723H153.744ZM171.583 19.0723V29.6323H169.599V24.1283L169.695 21.0403H169.663L166.735 29.6323H164.927L162.015 21.0403H161.983L162.095 24.1283V29.6323H160.095V19.0723H163.295L165.199 24.8323L165.871 27.2163H165.903L166.591 24.8483L168.479 19.0723H171.583ZM176.537 27.8563H182.473V29.6323H174.329V19.0723H182.249V20.8483H176.537V23.4723H181.033V25.1683H176.537V27.8563ZM191.553 27.8563H197.121V29.6323H189.345V19.0723H191.553V27.8563ZM203.155 18.9123C206.291 18.9123 208.227 20.9603 208.227 24.3523C208.227 27.7443 206.291 29.7923 203.155 29.7923C200.019 29.7923 198.067 27.7443 198.067 24.3523C198.067 20.9603 200.019 18.9123 203.155 18.9123ZM203.155 20.7203C201.379 20.7203 200.355 22.0003 200.355 24.3523C200.355 26.7043 201.379 27.9843 203.155 27.9843C204.915 27.9843 205.939 26.7043 205.939 24.3523C205.939 22.0003 204.915 20.7203 203.155 20.7203ZM215.014 18.9123C218.15 18.9123 220.086 20.9603 220.086 24.3523C220.086 27.7443 218.15 29.7923 215.014 29.7923C211.878 29.7923 209.926 27.7443 209.926 24.3523C209.926 20.9603 211.878 18.9123 215.014 18.9123ZM215.014 20.7203C213.238 20.7203 212.214 22.0003 212.214 24.3523C212.214 26.7043 213.238 27.9843 215.014 27.9843C216.774 27.9843 217.798 26.7043 217.798 24.3523C217.798 22.0003 216.774 20.7203 215.014 20.7203ZM226.107 18.9123C228.075 18.9123 229.419 19.5363 230.491 20.9443L228.971 22.4323C228.427 21.2963 227.547 20.7203 226.123 20.7203C224.795 20.7203 224.123 21.2803 224.123 22.0323C224.123 22.7363 224.699 23.1203 226.555 23.4563C229.403 23.9843 230.475 24.8643 230.475 26.6243C230.475 28.6083 228.667 29.7923 226.139 29.7923C223.739 29.7923 222.379 29.1043 221.483 27.8243L222.795 26.2563C223.627 27.6323 224.635 27.9843 226.059 27.9843C227.419 27.9843 228.155 27.5523 228.155 26.7523C228.155 26.1763 227.595 25.8403 225.851 25.4883C222.907 24.8963 221.787 24.0003 221.787 22.2403C221.787 20.3683 223.371 18.9123 226.107 18.9123ZM234.74 27.8563H240.676V29.6323H232.532V19.0723H240.452V20.8483H234.74V23.4723H239.236V25.1683H234.74V27.8563ZM244.753 19.0723V22.9123L244.481 26.2243H242.721L242.449 22.9123V19.0723H244.753ZM243.601 27.3123C244.433 27.3123 244.961 27.7923 244.961 28.5443C244.961 29.2963 244.433 29.7763 243.601 29.7763C242.769 29.7763 242.241 29.2963 242.241 28.5443C242.241 27.7923 242.769 27.3123 243.601 27.3123Z" fill="white"/>
</svg>
